<mxfile host="Electron" modified="2024-03-18T09:06:55.163Z" agent="Mozilla/5.0 (Macintosh; Intel Mac OS X 10_15_7) AppleWebKit/537.36 (KHTML, like Gecko) draw.io/22.0.2 Chrome/114.0.5735.289 Electron/25.8.4 Safari/537.36" etag="QTH39xjUEtB0wsi9u6sl" version="22.0.2" type="device" pages="2">
  <diagram name="Page-1" id="2YBvvXClWsGukQMizWep">
    <mxGraphModel dx="2156" dy="894" grid="1" gridSize="10" guides="1" tooltips="1" connect="1" arrows="1" fold="1" page="1" pageScale="1" pageWidth="850" pageHeight="1100" math="0" shadow="0">
      <root>
        <mxCell id="0" />
        <mxCell id="1" parent="0" />
        <mxCell id="aM9ryv3xv72pqoxQDRHE-1" value="Kastle Portal&amp;nbsp;" style="shape=umlLifeline;perimeter=lifelinePerimeter;whiteSpace=wrap;html=1;container=0;dropTarget=0;collapsible=0;recursiveResize=0;outlineConnect=0;portConstraint=eastwest;newEdgeStyle={&quot;edgeStyle&quot;:&quot;elbowEdgeStyle&quot;,&quot;elbow&quot;:&quot;vertical&quot;,&quot;curved&quot;:0,&quot;rounded&quot;:0};" parent="1" vertex="1">
          <mxGeometry x="30" y="215" width="100" height="815" as="geometry" />
        </mxCell>
        <mxCell id="aM9ryv3xv72pqoxQDRHE-2" value="" style="html=1;points=[];perimeter=orthogonalPerimeter;outlineConnect=0;targetShapes=umlLifeline;portConstraint=eastwest;newEdgeStyle={&quot;edgeStyle&quot;:&quot;elbowEdgeStyle&quot;,&quot;elbow&quot;:&quot;vertical&quot;,&quot;curved&quot;:0,&quot;rounded&quot;:0};" parent="aM9ryv3xv72pqoxQDRHE-1" vertex="1">
          <mxGeometry x="45" y="70" width="10" height="670" as="geometry" />
        </mxCell>
        <mxCell id="aM9ryv3xv72pqoxQDRHE-5" value="ARB" style="shape=umlLifeline;perimeter=lifelinePerimeter;whiteSpace=wrap;html=1;container=0;dropTarget=0;collapsible=0;recursiveResize=0;outlineConnect=0;portConstraint=eastwest;newEdgeStyle={&quot;edgeStyle&quot;:&quot;elbowEdgeStyle&quot;,&quot;elbow&quot;:&quot;vertical&quot;,&quot;curved&quot;:0,&quot;rounded&quot;:0};" parent="1" vertex="1">
          <mxGeometry x="510" y="210" width="100" height="720" as="geometry" />
        </mxCell>
        <mxCell id="aM9ryv3xv72pqoxQDRHE-6" value="" style="html=1;points=[];perimeter=orthogonalPerimeter;outlineConnect=0;targetShapes=umlLifeline;portConstraint=eastwest;newEdgeStyle={&quot;edgeStyle&quot;:&quot;elbowEdgeStyle&quot;,&quot;elbow&quot;:&quot;vertical&quot;,&quot;curved&quot;:0,&quot;rounded&quot;:0};" parent="aM9ryv3xv72pqoxQDRHE-5" vertex="1">
          <mxGeometry x="45" y="240" width="10" height="90" as="geometry" />
        </mxCell>
        <mxCell id="dqIlzbTI3SccMNQyxYTI-1" value="loan origination&amp;nbsp;" style="shape=umlLifeline;perimeter=lifelinePerimeter;whiteSpace=wrap;html=1;container=0;dropTarget=0;collapsible=0;recursiveResize=0;outlineConnect=0;portConstraint=eastwest;newEdgeStyle={&quot;edgeStyle&quot;:&quot;elbowEdgeStyle&quot;,&quot;elbow&quot;:&quot;vertical&quot;,&quot;curved&quot;:0,&quot;rounded&quot;:0};" parent="1" vertex="1">
          <mxGeometry x="290" y="210" width="100" height="780" as="geometry" />
        </mxCell>
        <mxCell id="dqIlzbTI3SccMNQyxYTI-2" value="" style="html=1;points=[];perimeter=orthogonalPerimeter;outlineConnect=0;targetShapes=umlLifeline;portConstraint=eastwest;newEdgeStyle={&quot;edgeStyle&quot;:&quot;elbowEdgeStyle&quot;,&quot;elbow&quot;:&quot;vertical&quot;,&quot;curved&quot;:0,&quot;rounded&quot;:0};" parent="dqIlzbTI3SccMNQyxYTI-1" vertex="1">
          <mxGeometry x="45" y="80" width="10" height="680" as="geometry" />
        </mxCell>
        <mxCell id="dqIlzbTI3SccMNQyxYTI-10" style="edgeStyle=elbowEdgeStyle;rounded=0;orthogonalLoop=1;jettySize=auto;html=1;elbow=vertical;curved=0;" parent="1" edge="1">
          <mxGeometry relative="1" as="geometry">
            <mxPoint x="90" y="442.5" as="sourcePoint" />
            <mxPoint x="344.5" y="442.5" as="targetPoint" />
          </mxGeometry>
        </mxCell>
        <mxCell id="dqIlzbTI3SccMNQyxYTI-11" value="get external loans&amp;nbsp;" style="text;html=1;align=center;verticalAlign=middle;resizable=0;points=[];autosize=1;strokeColor=none;fillColor=none;" parent="1" vertex="1">
          <mxGeometry x="-95" y="428" width="120" height="30" as="geometry" />
        </mxCell>
        <mxCell id="dqIlzbTI3SccMNQyxYTI-12" value="/integration/v4/getExternalLoans" style="text;html=1;align=center;verticalAlign=middle;resizable=0;points=[];autosize=1;strokeColor=none;fillColor=none;" parent="1" vertex="1">
          <mxGeometry x="110" y="420" width="200" height="30" as="geometry" />
        </mxCell>
        <mxCell id="dqIlzbTI3SccMNQyxYTI-14" value="/integration/v4/getExternalLoans :&amp;nbsp;&amp;nbsp;&lt;br&gt;&lt;div&gt;{&lt;/div&gt;&lt;div&gt;&amp;nbsp; &quot;nid&quot;: &quot;1248965640&quot;,&lt;/div&gt;&lt;div&gt;&amp;nbsp; &quot;cifid&quot;: &quot;293431&quot;,&lt;/div&gt;&lt;div&gt;&amp;nbsp; &quot;companyId&quot;: &quot;42&quot;,&lt;/div&gt;&lt;div&gt;&amp;nbsp; &quot;compAppId&quot;:&quot;925072&quot;&lt;/div&gt;&lt;div&gt;}&lt;/div&gt;" style="text;html=1;align=center;verticalAlign=middle;resizable=0;points=[];autosize=1;strokeColor=none;fillColor=none;" parent="1" vertex="1">
          <mxGeometry x="40" y="1090" width="210" height="110" as="geometry" />
        </mxCell>
        <mxCell id="dqIlzbTI3SccMNQyxYTI-15" style="edgeStyle=elbowEdgeStyle;rounded=0;orthogonalLoop=1;jettySize=auto;html=1;elbow=vertical;curved=0;" parent="1" source="dqIlzbTI3SccMNQyxYTI-2" target="aM9ryv3xv72pqoxQDRHE-5" edge="1">
          <mxGeometry relative="1" as="geometry">
            <Array as="points">
              <mxPoint x="420" y="480" />
            </Array>
          </mxGeometry>
        </mxCell>
        <mxCell id="dqIlzbTI3SccMNQyxYTI-16" value="customer" style="shape=umlLifeline;perimeter=lifelinePerimeter;whiteSpace=wrap;html=1;container=0;dropTarget=0;collapsible=0;recursiveResize=0;outlineConnect=0;portConstraint=eastwest;newEdgeStyle={&quot;edgeStyle&quot;:&quot;elbowEdgeStyle&quot;,&quot;elbow&quot;:&quot;vertical&quot;,&quot;curved&quot;:0,&quot;rounded&quot;:0};" parent="1" vertex="1">
          <mxGeometry x="820" y="220" width="100" height="570" as="geometry" />
        </mxCell>
        <mxCell id="dqIlzbTI3SccMNQyxYTI-17" value="" style="html=1;points=[];perimeter=orthogonalPerimeter;outlineConnect=0;targetShapes=umlLifeline;portConstraint=eastwest;newEdgeStyle={&quot;edgeStyle&quot;:&quot;elbowEdgeStyle&quot;,&quot;elbow&quot;:&quot;vertical&quot;,&quot;curved&quot;:0,&quot;rounded&quot;:0};" parent="dqIlzbTI3SccMNQyxYTI-16" vertex="1">
          <mxGeometry x="45" y="400" width="10" height="80" as="geometry" />
        </mxCell>
        <mxCell id="dqIlzbTI3SccMNQyxYTI-18" value="lookup" style="shape=umlLifeline;perimeter=lifelinePerimeter;whiteSpace=wrap;html=1;container=0;dropTarget=0;collapsible=0;recursiveResize=0;outlineConnect=0;portConstraint=eastwest;newEdgeStyle={&quot;edgeStyle&quot;:&quot;elbowEdgeStyle&quot;,&quot;elbow&quot;:&quot;vertical&quot;,&quot;curved&quot;:0,&quot;rounded&quot;:0};" parent="1" vertex="1">
          <mxGeometry x="970" y="220" width="100" height="700" as="geometry" />
        </mxCell>
        <mxCell id="dqIlzbTI3SccMNQyxYTI-19" value="" style="html=1;points=[];perimeter=orthogonalPerimeter;outlineConnect=0;targetShapes=umlLifeline;portConstraint=eastwest;newEdgeStyle={&quot;edgeStyle&quot;:&quot;elbowEdgeStyle&quot;,&quot;elbow&quot;:&quot;vertical&quot;,&quot;curved&quot;:0,&quot;rounded&quot;:0};" parent="dqIlzbTI3SccMNQyxYTI-18" vertex="1">
          <mxGeometry x="45" y="320" width="10" height="110" as="geometry" />
        </mxCell>
        <mxCell id="dqIlzbTI3SccMNQyxYTI-20" value="qara MS" style="shape=umlLifeline;perimeter=lifelinePerimeter;whiteSpace=wrap;html=1;container=0;dropTarget=0;collapsible=0;recursiveResize=0;outlineConnect=0;portConstraint=eastwest;newEdgeStyle={&quot;edgeStyle&quot;:&quot;elbowEdgeStyle&quot;,&quot;elbow&quot;:&quot;vertical&quot;,&quot;curved&quot;:0,&quot;rounded&quot;:0};" parent="1" vertex="1">
          <mxGeometry x="660" y="205" width="100" height="660" as="geometry" />
        </mxCell>
        <mxCell id="dqIlzbTI3SccMNQyxYTI-21" value="" style="html=1;points=[];perimeter=orthogonalPerimeter;outlineConnect=0;targetShapes=umlLifeline;portConstraint=eastwest;newEdgeStyle={&quot;edgeStyle&quot;:&quot;elbowEdgeStyle&quot;,&quot;elbow&quot;:&quot;vertical&quot;,&quot;curved&quot;:0,&quot;rounded&quot;:0};" parent="dqIlzbTI3SccMNQyxYTI-20" vertex="1">
          <mxGeometry x="45" y="310" width="10" height="350" as="geometry" />
        </mxCell>
        <mxCell id="dqIlzbTI3SccMNQyxYTI-32" value="" style="endArrow=classic;html=1;rounded=0;entryX=0.45;entryY=0.836;entryDx=0;entryDy=0;entryPerimeter=0;" parent="dqIlzbTI3SccMNQyxYTI-20" edge="1">
          <mxGeometry width="50" height="50" relative="1" as="geometry">
            <mxPoint x="49.5" y="543" as="sourcePoint" />
            <mxPoint x="49.5" y="627.8800000000001" as="targetPoint" />
            <Array as="points">
              <mxPoint x="120" y="568" />
            </Array>
          </mxGeometry>
        </mxCell>
        <mxCell id="dqIlzbTI3SccMNQyxYTI-22" value="get ARB contract" style="text;html=1;align=center;verticalAlign=middle;resizable=0;points=[];autosize=1;strokeColor=none;fillColor=none;" parent="1" vertex="1">
          <mxGeometry x="365" y="472" width="110" height="30" as="geometry" />
        </mxCell>
        <mxCell id="dqIlzbTI3SccMNQyxYTI-23" style="edgeStyle=elbowEdgeStyle;rounded=0;orthogonalLoop=1;jettySize=auto;html=1;elbow=vertical;curved=0;" parent="1" edge="1">
          <mxGeometry relative="1" as="geometry">
            <mxPoint x="555" y="511" as="sourcePoint" />
            <mxPoint x="339.5" y="511" as="targetPoint" />
          </mxGeometry>
        </mxCell>
        <mxCell id="dqIlzbTI3SccMNQyxYTI-24" style="edgeStyle=elbowEdgeStyle;rounded=0;orthogonalLoop=1;jettySize=auto;html=1;elbow=vertical;curved=0;" parent="1" edge="1">
          <mxGeometry relative="1" as="geometry">
            <mxPoint x="345" y="546" as="sourcePoint" />
            <mxPoint x="709.5" y="546" as="targetPoint" />
          </mxGeometry>
        </mxCell>
        <mxCell id="dqIlzbTI3SccMNQyxYTI-25" value="/qarar/getEligibilLoans" style="text;html=1;align=center;verticalAlign=middle;resizable=0;points=[];autosize=1;strokeColor=none;fillColor=none;" parent="1" vertex="1">
          <mxGeometry x="350" y="518" width="140" height="30" as="geometry" />
        </mxCell>
        <mxCell id="dqIlzbTI3SccMNQyxYTI-26" style="edgeStyle=elbowEdgeStyle;rounded=0;orthogonalLoop=1;jettySize=auto;html=1;elbow=vertical;curved=0;" parent="1" edge="1">
          <mxGeometry relative="1" as="geometry">
            <mxPoint x="1019.5" y="581" as="targetPoint" />
            <mxPoint x="715" y="581" as="sourcePoint" />
          </mxGeometry>
        </mxCell>
        <mxCell id="dqIlzbTI3SccMNQyxYTI-27" value="/getCompanies" style="text;html=1;align=center;verticalAlign=middle;resizable=0;points=[];autosize=1;strokeColor=none;fillColor=none;" parent="1" vertex="1">
          <mxGeometry x="730" y="558" width="100" height="30" as="geometry" />
        </mxCell>
        <mxCell id="dqIlzbTI3SccMNQyxYTI-28" style="edgeStyle=elbowEdgeStyle;rounded=0;orthogonalLoop=1;jettySize=auto;html=1;elbow=vertical;curved=0;" parent="1" edge="1">
          <mxGeometry relative="1" as="geometry">
            <mxPoint x="1015" y="606" as="sourcePoint" />
            <mxPoint x="709.5" y="606" as="targetPoint" />
          </mxGeometry>
        </mxCell>
        <mxCell id="dqIlzbTI3SccMNQyxYTI-29" style="edgeStyle=elbowEdgeStyle;rounded=0;orthogonalLoop=1;jettySize=auto;html=1;elbow=vertical;curved=0;" parent="1" edge="1">
          <mxGeometry relative="1" as="geometry">
            <mxPoint x="715" y="639" as="sourcePoint" />
            <mxPoint x="869.5" y="639" as="targetPoint" />
          </mxGeometry>
        </mxCell>
        <mxCell id="dqIlzbTI3SccMNQyxYTI-30" value="/customer/getExternalCompanyLoan" style="edgeLabel;html=1;align=center;verticalAlign=middle;resizable=0;points=[];" parent="dqIlzbTI3SccMNQyxYTI-29" vertex="1" connectable="0">
          <mxGeometry x="-0.3916" y="3" relative="1" as="geometry">
            <mxPoint as="offset" />
          </mxGeometry>
        </mxCell>
        <mxCell id="dqIlzbTI3SccMNQyxYTI-31" style="edgeStyle=elbowEdgeStyle;rounded=0;orthogonalLoop=1;jettySize=auto;html=1;elbow=vertical;curved=0;" parent="1" edge="1">
          <mxGeometry relative="1" as="geometry">
            <mxPoint x="865" y="665" as="sourcePoint" />
            <mxPoint x="709.5" y="665" as="targetPoint" />
          </mxGeometry>
        </mxCell>
        <mxCell id="dqIlzbTI3SccMNQyxYTI-33" value="apply BO eligibility" style="text;html=1;align=center;verticalAlign=middle;resizable=0;points=[];autosize=1;strokeColor=none;fillColor=none;" parent="1" vertex="1">
          <mxGeometry x="705" y="759" width="120" height="30" as="geometry" />
        </mxCell>
        <mxCell id="dqIlzbTI3SccMNQyxYTI-34" style="edgeStyle=elbowEdgeStyle;rounded=0;orthogonalLoop=1;jettySize=auto;html=1;elbow=vertical;curved=0;" parent="1" edge="1">
          <mxGeometry relative="1" as="geometry">
            <mxPoint x="705" y="850" as="sourcePoint" />
            <mxPoint x="339.5" y="850" as="targetPoint" />
          </mxGeometry>
        </mxCell>
        <mxCell id="dqIlzbTI3SccMNQyxYTI-36" value="QARAR" style="shape=umlLifeline;perimeter=lifelinePerimeter;whiteSpace=wrap;html=1;container=0;dropTarget=0;collapsible=0;recursiveResize=0;outlineConnect=0;portConstraint=eastwest;newEdgeStyle={&quot;edgeStyle&quot;:&quot;elbowEdgeStyle&quot;,&quot;elbow&quot;:&quot;vertical&quot;,&quot;curved&quot;:0,&quot;rounded&quot;:0};" parent="1" vertex="1">
          <mxGeometry x="1175" y="210" width="100" height="700" as="geometry" />
        </mxCell>
        <mxCell id="dqIlzbTI3SccMNQyxYTI-37" value="" style="html=1;points=[];perimeter=orthogonalPerimeter;outlineConnect=0;targetShapes=umlLifeline;portConstraint=eastwest;newEdgeStyle={&quot;edgeStyle&quot;:&quot;elbowEdgeStyle&quot;,&quot;elbow&quot;:&quot;vertical&quot;,&quot;curved&quot;:0,&quot;rounded&quot;:0};" parent="dqIlzbTI3SccMNQyxYTI-36" vertex="1">
          <mxGeometry x="45" y="80" width="10" height="570" as="geometry" />
        </mxCell>
        <mxCell id="dqIlzbTI3SccMNQyxYTI-38" style="edgeStyle=elbowEdgeStyle;rounded=0;orthogonalLoop=1;jettySize=auto;html=1;elbow=vertical;curved=0;" parent="1" edge="1">
          <mxGeometry relative="1" as="geometry">
            <mxPoint x="715" y="706" as="sourcePoint" />
            <mxPoint x="1224.5" y="706" as="targetPoint" />
          </mxGeometry>
        </mxCell>
        <mxCell id="dqIlzbTI3SccMNQyxYTI-41" value="/getSimahReport" style="edgeLabel;html=1;align=center;verticalAlign=middle;resizable=0;points=[];" parent="dqIlzbTI3SccMNQyxYTI-38" vertex="1" connectable="0">
          <mxGeometry x="-0.1796" y="3" relative="1" as="geometry">
            <mxPoint y="1" as="offset" />
          </mxGeometry>
        </mxCell>
        <mxCell id="dqIlzbTI3SccMNQyxYTI-40" style="edgeStyle=elbowEdgeStyle;rounded=0;orthogonalLoop=1;jettySize=auto;html=1;elbow=vertical;curved=0;entryX=0.067;entryY=-0.15;entryDx=0;entryDy=0;entryPerimeter=0;" parent="1" edge="1">
          <mxGeometry relative="1" as="geometry">
            <mxPoint x="1220" y="741" as="sourcePoint" />
            <mxPoint x="713.04" y="740.5" as="targetPoint" />
          </mxGeometry>
        </mxCell>
        <mxCell id="dqIlzbTI3SccMNQyxYTI-42" style="edgeStyle=elbowEdgeStyle;rounded=0;orthogonalLoop=1;jettySize=auto;html=1;elbow=vertical;curved=0;" parent="1" edge="1">
          <mxGeometry relative="1" as="geometry">
            <mxPoint x="337.75" y="900" as="sourcePoint" />
            <mxPoint x="82.25" y="900" as="targetPoint" />
          </mxGeometry>
        </mxCell>
      </root>
    </mxGraphModel>
  </diagram>
  <diagram id="GgzkvBmw1W4ufcyJ26QL" name="Page-2">
    <mxGraphModel dx="1306" dy="894" grid="1" gridSize="10" guides="1" tooltips="1" connect="1" arrows="1" fold="1" page="1" pageScale="1" pageWidth="850" pageHeight="1100" math="0" shadow="0">
      <root>
        <mxCell id="0" />
        <mxCell id="1" parent="0" />
      </root>
    </mxGraphModel>
  </diagram>
</mxfile>
